<?xml version="1.0" standalone="no"?>
<!DOCTYPE svg PUBLIC "-//W3C//DTD SVG 20010904//EN"
 "http://www.w3.org/TR/2001/REC-SVG-20010904/DTD/svg10.dtd">
<svg version="1.0" xmlns="http://www.w3.org/2000/svg"
 width="1080.000000pt" height="1080.000000pt" viewBox="0 0 1080.000000 1080.000000"
 preserveAspectRatio="xMidYMid meet">
<metadata>
Created by potrace 1.14, written by Peter Selinger 2001-2017
</metadata>
<g transform="translate(0.000000,1080.000000) scale(0.100000,-0.100000)"
fill="#000000" stroke="none">
<path d="M0 5400 l0 -5400 5400 0 5400 0 0 5400 0 5400 -5400 0 -5400 0 0
-5400z m5481 3330 c15 -11 35 -39 44 -63 15 -41 15 -46 -15 -172 -17 -72 -33
-137 -35 -145 -4 -13 5 -16 54 -15 95 0 101 -10 101 -169 0 -118 -4 -149 -46
-335 -51 -228 -70 -281 -108 -306 -73 -48 -162 -20 -198 62 l-20 46 31 131
c17 72 34 141 37 153 6 21 4 22 -42 17 -38 -4 -56 -1 -81 15 l-33 21 0 135 c0
128 3 147 50 347 28 117 58 225 68 242 38 65 128 82 193 36z m-2390 -781 c90
-56 216 -136 279 -178 101 -67 117 -81 129 -116 19 -54 8 -105 -30 -146 -16
-18 -26 -36 -22 -40 5 -5 47 -35 93 -66 l85 -58 3 -119 c3 -132 1 -136 -59
-136 -29 0 -72 21 -200 98 -243 146 -366 228 -383 254 -38 59 -28 138 25 182
16 14 29 27 29 29 0 3 -19 16 -42 30 -24 14 -71 46 -106 71 l-63 47 2 117 c0
64 3 120 6 125 2 4 23 7 47 7 37 0 66 -14 207 -101z m4877 -26 l3 -121 -54
-40 c-29 -22 -77 -54 -105 -72 -29 -17 -52 -34 -52 -37 0 -2 13 -15 29 -29 52
-44 63 -123 26 -181 -18 -26 -112 -89 -368 -245 -142 -86 -186 -108 -215 -108
-62 0 -63 4 -60 136 l3 119 85 58 c109 74 109 74 81 93 -47 33 -64 119 -35
175 16 32 145 121 419 288 138 84 154 92 195 89 l45 -3 3 -122z m-2958 -729
c82 -19 207 -79 287 -139 l62 -46 63 47 c171 125 351 176 546 154 324 -37 591
-259 667 -556 18 -71 23 -181 12 -240 l-8 -40 69 -43 69 -43 2 -157 c1 -86 -2
-167 -7 -180 -9 -24 -9 -24 -30 11 -26 43 -103 115 -156 147 -21 13 -70 36
-109 50 -112 41 -139 102 -102 225 52 173 -43 386 -217 484 -95 53 -151 67
-278 67 -101 -1 -123 -4 -183 -28 -82 -32 -174 -94 -216 -147 -18 -23 -48 -45
-76 -55 -43 -17 -47 -17 -90 0 -28 10 -58 32 -77 56 -17 22 -61 59 -97 84
-292 198 -704 69 -796 -250 -21 -71 -16 -187 10 -253 23 -56 16 -124 -16 -158
-13 -14 -51 -39 -85 -55 -70 -35 -162 -112 -194 -164 -12 -19 -26 -33 -31 -29
-5 3 -9 74 -9 159 l0 154 40 38 39 39 -14 48 c-19 64 -19 206 0 281 100 389
516 631 925 539z m444 -968 c42 -18 73 -57 81 -104 5 -31 -7 -74 -65 -240 -39
-112 -81 -232 -95 -267 -17 -46 -20 -65 -12 -65 7 0 73 20 147 45 138 46 177
53 211 35 18 -10 19 -23 19 -177 l0 -166 -107 -325 c-92 -277 -113 -331 -140
-358 -56 -57 -146 -54 -197 7 -49 58 -47 75 54 372 51 150 95 277 97 284 3 7
-60 -10 -143 -37 -149 -50 -210 -60 -232 -38 -8 8 -12 61 -12 174 l0 163 109
321 c60 177 118 331 128 342 39 44 101 58 157 34z m-1419 -686 c3 -5 1 -10 -4
-10 -6 0 -11 5 -11 10 0 6 2 10 4 10 3 0 8 -4 11 -10z m2744 -160 c0 -69 -3
-132 -9 -140 -10 -17 -7 -20 -54 49 -52 77 -50 101 19 204 39 58 43 47 44
-113z m-2701 95 c35 -48 48 -90 39 -127 -8 -30 -82 -130 -91 -121 -3 3 -6 71
-6 150 0 162 5 170 58 98z m2701 -810 c1 -192 -1 -198 -68 -240 l-56 -35 -1
-93 c-1 -50 -10 -119 -18 -152 -39 -142 -129 -284 -238 -374 -81 -67 -240
-145 -343 -167 -102 -23 -258 -22 -345 0 -87 23 -213 84 -288 141 l-61 46 -63
-47 c-79 -59 -204 -119 -294 -140 -100 -24 -257 -22 -363 5 -225 59 -402 198
-501 393 -55 111 -74 206 -67 340 5 100 4 109 -14 118 -10 6 -19 17 -19 25 0
8 -4 15 -10 15 -13 0 -14 307 -1 314 5 3 21 -13 37 -35 40 -58 103 -111 183
-153 103 -54 123 -97 95 -206 -51 -200 52 -407 253 -509 99 -50 261 -65 377
-35 92 24 173 71 249 146 114 112 166 111 281 -5 100 -102 231 -157 376 -157
299 0 535 229 505 489 -16 135 -13 167 19 200 16 17 45 36 65 42 101 33 225
123 271 197 34 54 38 39 39 -123z m-3151 -1081 c3 -139 13 -121 -120 -211
l-87 -59 31 -29 c35 -33 48 -63 48 -109 0 -71 -40 -102 -419 -333 -120 -72
-162 -93 -190 -93 -20 0 -41 4 -48 8 -7 5 -11 45 -10 127 l2 120 85 58 c47 32
92 62 100 67 12 7 9 13 -14 31 -30 24 -56 74 -56 110 0 11 8 37 17 56 18 39
132 119 418 293 138 83 154 91 195 88 l45 -3 3 -121z m3787 35 c296 -180 400
-253 418 -291 9 -20 17 -46 17 -57 0 -36 -26 -86 -56 -110 -23 -18 -26 -24
-14 -31 8 -5 53 -35 100 -67 l85 -58 2 -120 c1 -82 -3 -122 -10 -127 -7 -4
-28 -8 -48 -8 -29 0 -71 20 -191 93 -375 227 -418 262 -418 334 0 45 25 98 57
118 l25 16 -89 61 c-133 90 -123 73 -123 209 0 128 0 127 60 128 28 1 68 -19
185 -90z m-1939 -344 c14 -9 35 -37 46 -61 l19 -45 -31 -132 c-17 -73 -33
-139 -36 -148 -4 -13 4 -15 48 -11 43 3 58 0 81 -18 l27 -21 0 -135 c0 -125
-3 -148 -50 -351 -28 -119 -58 -230 -68 -246 -56 -96 -196 -80 -237 27 -17 43
-16 46 19 191 20 80 36 148 36 150 0 1 -24 2 -53 1 -35 -1 -62 5 -80 17 l-27
17 0 136 c0 127 3 147 50 344 27 115 56 223 65 240 35 67 125 88 191 45z"/>
</g>
</svg>
